<svg id="visual" viewBox="0 0 900 600" width="900" height="600" xmlns="http://www.w3.org/2000/svg" xmlns:xlink="http://www.w3.org/1999/xlink" version="1.1"><rect x="0" y="0" width="900" height="600" fill="#001220"></rect><path d="M0 444L21.5 437C43 430 86 416 128.8 403.8C171.7 391.7 214.3 381.3 257.2 383.8C300 386.3 343 401.7 385.8 403C428.7 404.3 471.3 391.7 514.2 389.5C557 387.3 600 395.7 642.8 396C685.7 396.3 728.3 388.7 771.2 394.3C814 400 857 419 878.5 428.5L900 438L900 601L878.5 601C857 601 814 601 771.2 601C728.3 601 685.7 601 642.8 601C600 601 557 601 514.2 601C471.3 601 428.7 601 385.8 601C343 601 300 601 257.2 601C214.3 601 171.7 601 128.8 601C86 601 43 601 21.5 601L0 601Z" fill="#3b45c1"></path><path d="M0 466L21.5 455.5C43 445 86 424 128.8 419.8C171.7 415.7 214.3 428.3 257.2 434.3C300 440.3 343 439.7 385.8 443.7C428.7 447.7 471.3 456.3 514.2 459.8C557 463.3 600 461.7 642.8 462C685.7 462.3 728.3 464.7 771.2 453.7C814 442.7 857 418.3 878.5 406.2L900 394L900 601L878.5 601C857 601 814 601 771.2 601C728.3 601 685.7 601 642.8 601C600 601 557 601 514.2 601C471.3 601 428.7 601 385.8 601C343 601 300 601 257.2 601C214.3 601 171.7 601 128.8 601C86 601 43 601 21.5 601L0 601Z" fill="#293898"></path><path d="M0 478L21.5 472.2C43 466.3 86 454.7 128.8 450.7C171.7 446.7 214.3 450.3 257.2 459.8C300 469.3 343 484.7 385.8 487.5C428.7 490.3 471.3 480.7 514.2 479.5C557 478.3 600 485.7 642.8 486.7C685.7 487.7 728.3 482.3 771.2 483.8C814 485.3 857 493.7 878.5 497.8L900 502L900 601L878.5 601C857 601 814 601 771.2 601C728.3 601 685.7 601 642.8 601C600 601 557 601 514.2 601C471.3 601 428.7 601 385.8 601C343 601 300 601 257.2 601C214.3 601 171.7 601 128.8 601C86 601 43 601 21.5 601L0 601Z" fill="#1b2a71"></path><path d="M0 517L21.5 516.7C43 516.3 86 515.7 128.8 518.3C171.7 521 214.3 527 257.2 530.7C300 534.3 343 535.7 385.8 528.8C428.7 522 471.3 507 514.2 503.8C557 500.7 600 509.3 642.8 507.7C685.7 506 728.3 494 771.2 489.5C814 485 857 488 878.5 489.5L900 491L900 601L878.5 601C857 601 814 601 771.2 601C728.3 601 685.7 601 642.8 601C600 601 557 601 514.2 601C471.3 601 428.7 601 385.8 601C343 601 300 601 257.2 601C214.3 601 171.7 601 128.8 601C86 601 43 601 21.5 601L0 601Z" fill="#121d4b"></path><path d="M0 527L21.5 526.8C43 526.7 86 526.3 128.8 526.8C171.7 527.3 214.3 528.7 257.2 536.5C300 544.3 343 558.7 385.8 559.5C428.7 560.3 471.3 547.7 514.2 543.3C557 539 600 543 642.8 545.8C685.7 548.7 728.3 550.3 771.2 548C814 545.7 857 539.3 878.5 536.2L900 533L900 601L878.5 601C857 601 814 601 771.2 601C728.3 601 685.7 601 642.8 601C600 601 557 601 514.2 601C471.3 601 428.7 601 385.8 601C343 601 300 601 257.2 601C214.3 601 171.7 601 128.8 601C86 601 43 601 21.5 601L0 601Z" fill="#0c0e28"></path></svg>