<svg id="visual" viewBox="0 0 960 540" width="960" height="540" xmlns="http://www.w3.org/2000/svg" xmlns:xlink="http://www.w3.org/1999/xlink" version="1.1"><path d="M0 266L22.8 260.2C45.7 254.3 91.3 242.7 137 248.8C182.7 255 228.3 279 274 278.7C319.7 278.3 365.3 253.7 411.2 251C457 248.3 503 267.7 548.8 267.2C594.7 266.7 640.3 246.3 686 239.8C731.7 233.3 777.3 240.7 823 245.3C868.7 250 914.3 252 937.2 253L960 254L960 541L937.2 541C914.3 541 868.7 541 823 541C777.3 541 731.7 541 686 541C640.3 541 594.7 541 548.8 541C503 541 457 541 411.2 541C365.3 541 319.7 541 274 541C228.3 541 182.7 541 137 541C91.3 541 45.7 541 22.8 541L0 541Z" fill="#3b45c1"></path><path d="M0 317L22.8 315.8C45.7 314.7 91.3 312.3 137 308.2C182.7 304 228.3 298 274 294.8C319.7 291.7 365.3 291.3 411.2 291.8C457 292.3 503 293.7 548.8 303.2C594.7 312.7 640.3 330.3 686 327.8C731.7 325.3 777.3 302.7 823 291.2C868.7 279.7 914.3 279.3 937.2 279.2L960 279L960 541L937.2 541C914.3 541 868.7 541 823 541C777.3 541 731.7 541 686 541C640.3 541 594.7 541 548.8 541C503 541 457 541 411.2 541C365.3 541 319.7 541 274 541C228.3 541 182.7 541 137 541C91.3 541 45.7 541 22.8 541L0 541Z" fill="#2c3aa0"></path><path d="M0 344L22.8 343C45.7 342 91.3 340 137 335.7C182.7 331.3 228.3 324.7 274 330C319.7 335.3 365.3 352.7 411.2 361.2C457 369.7 503 369.3 548.8 365.8C594.7 362.3 640.3 355.7 686 353.2C731.7 350.7 777.3 352.3 823 350.5C868.7 348.7 914.3 343.3 937.2 340.7L960 338L960 541L937.2 541C914.3 541 868.7 541 823 541C777.3 541 731.7 541 686 541C640.3 541 594.7 541 548.8 541C503 541 457 541 411.2 541C365.3 541 319.7 541 274 541C228.3 541 182.7 541 137 541C91.3 541 45.7 541 22.8 541L0 541Z" fill="#202f81"></path><path d="M0 391L22.8 390.2C45.7 389.3 91.3 387.7 137 385.2C182.7 382.7 228.3 379.3 274 383.3C319.7 387.3 365.3 398.7 411.2 407.2C457 415.7 503 421.3 548.8 413.5C594.7 405.7 640.3 384.3 686 382.8C731.7 381.3 777.3 399.7 823 402.7C868.7 405.7 914.3 393.3 937.2 387.2L960 381L960 541L937.2 541C914.3 541 868.7 541 823 541C777.3 541 731.7 541 686 541C640.3 541 594.7 541 548.8 541C503 541 457 541 411.2 541C365.3 541 319.7 541 274 541C228.3 541 182.7 541 137 541C91.3 541 45.7 541 22.8 541L0 541Z" fill="#172562"></path><path d="M0 468L22.8 463.5C45.7 459 91.3 450 137 447.7C182.7 445.3 228.3 449.7 274 451.3C319.7 453 365.3 452 411.2 448.8C457 445.7 503 440.3 548.8 435.3C594.7 430.3 640.3 425.7 686 430C731.7 434.3 777.3 447.7 823 447.5C868.7 447.3 914.3 433.7 937.2 426.8L960 420L960 541L937.2 541C914.3 541 868.7 541 823 541C777.3 541 731.7 541 686 541C640.3 541 594.7 541 548.8 541C503 541 457 541 411.2 541C365.3 541 319.7 541 274 541C228.3 541 182.7 541 137 541C91.3 541 45.7 541 22.8 541L0 541Z" fill="#101a44"></path><path d="M0 486L22.8 483.3C45.7 480.7 91.3 475.3 137 477.5C182.7 479.7 228.3 489.3 274 489.8C319.7 490.3 365.3 481.7 411.2 482.5C457 483.3 503 493.7 548.8 495C594.7 496.3 640.3 488.7 686 481.7C731.7 474.7 777.3 468.3 823 465C868.7 461.7 914.3 461.3 937.2 461.2L960 461L960 541L937.2 541C914.3 541 868.7 541 823 541C777.3 541 731.7 541 686 541C640.3 541 594.7 541 548.8 541C503 541 457 541 411.2 541C365.3 541 319.7 541 274 541C228.3 541 182.7 541 137 541C91.3 541 45.7 541 22.8 541L0 541Z" fill="#0c0e28"></path></svg>